<mxfile host="Electron" agent="Mozilla/5.0 (Windows NT 10.0; Win64; x64) AppleWebKit/537.36 (KHTML, like Gecko) draw.io/24.7.8 Chrome/128.0.6613.36 Electron/32.0.1 Safari/537.36" version="24.7.8">
  <diagram name="Страница — 1" id="R8XnnEVmH2Fg10V8Gqf3">
    <mxGraphModel dx="956" dy="605" grid="0" gridSize="10" guides="1" tooltips="1" connect="1" arrows="1" fold="1" page="1" pageScale="1" pageWidth="3300" pageHeight="4681" math="0" shadow="0">
      <root>
        <mxCell id="0" />
        <mxCell id="1" parent="0" />
        <mxCell id="p7ySesvMW-Rr2XsrZ5MS-8" style="edgeStyle=orthogonalEdgeStyle;rounded=0;orthogonalLoop=1;jettySize=auto;html=1;entryX=0.5;entryY=0;entryDx=0;entryDy=0;" edge="1" parent="1" source="p7ySesvMW-Rr2XsrZ5MS-1" target="p7ySesvMW-Rr2XsrZ5MS-3">
          <mxGeometry relative="1" as="geometry" />
        </mxCell>
        <mxCell id="p7ySesvMW-Rr2XsrZ5MS-1" value="Начало" style="strokeWidth=1;html=1;shape=mxgraph.flowchart.terminator;whiteSpace=wrap;" vertex="1" parent="1">
          <mxGeometry x="320" y="40" width="80" height="40" as="geometry" />
        </mxCell>
        <mxCell id="p7ySesvMW-Rr2XsrZ5MS-9" style="edgeStyle=orthogonalEdgeStyle;rounded=0;orthogonalLoop=1;jettySize=auto;html=1;entryX=0.5;entryY=0;entryDx=0;entryDy=0;" edge="1" parent="1" source="p7ySesvMW-Rr2XsrZ5MS-3" target="p7ySesvMW-Rr2XsrZ5MS-4">
          <mxGeometry relative="1" as="geometry" />
        </mxCell>
        <mxCell id="p7ySesvMW-Rr2XsrZ5MS-3" value="Добавление заголовка" style="shape=process;whiteSpace=wrap;html=1;backgroundOutline=1;" vertex="1" parent="1">
          <mxGeometry x="300" y="100" width="120" height="60" as="geometry" />
        </mxCell>
        <mxCell id="p7ySesvMW-Rr2XsrZ5MS-10" style="edgeStyle=orthogonalEdgeStyle;rounded=0;orthogonalLoop=1;jettySize=auto;html=1;entryX=0.5;entryY=0;entryDx=0;entryDy=0;" edge="1" parent="1" source="p7ySesvMW-Rr2XsrZ5MS-4" target="p7ySesvMW-Rr2XsrZ5MS-5">
          <mxGeometry relative="1" as="geometry" />
        </mxCell>
        <mxCell id="p7ySesvMW-Rr2XsrZ5MS-4" value="Генерация и добавление таблицы" style="shape=process;whiteSpace=wrap;html=1;backgroundOutline=1;" vertex="1" parent="1">
          <mxGeometry x="300" y="180" width="120" height="60" as="geometry" />
        </mxCell>
        <mxCell id="p7ySesvMW-Rr2XsrZ5MS-5" value="Сохранение документа" style="shape=process;whiteSpace=wrap;html=1;backgroundOutline=1;" vertex="1" parent="1">
          <mxGeometry x="300" y="260" width="120" height="60" as="geometry" />
        </mxCell>
        <mxCell id="p7ySesvMW-Rr2XsrZ5MS-6" value="Конец" style="strokeWidth=1;html=1;shape=mxgraph.flowchart.terminator;whiteSpace=wrap;" vertex="1" parent="1">
          <mxGeometry x="320" y="340" width="80" height="40" as="geometry" />
        </mxCell>
        <mxCell id="p7ySesvMW-Rr2XsrZ5MS-11" style="edgeStyle=orthogonalEdgeStyle;rounded=0;orthogonalLoop=1;jettySize=auto;html=1;entryX=0.5;entryY=0;entryDx=0;entryDy=0;entryPerimeter=0;" edge="1" parent="1" source="p7ySesvMW-Rr2XsrZ5MS-5" target="p7ySesvMW-Rr2XsrZ5MS-6">
          <mxGeometry relative="1" as="geometry" />
        </mxCell>
        <mxCell id="p7ySesvMW-Rr2XsrZ5MS-22" style="edgeStyle=orthogonalEdgeStyle;rounded=0;orthogonalLoop=1;jettySize=auto;html=1;entryX=0.5;entryY=0;entryDx=0;entryDy=0;" edge="1" parent="1" source="p7ySesvMW-Rr2XsrZ5MS-13" target="p7ySesvMW-Rr2XsrZ5MS-21">
          <mxGeometry relative="1" as="geometry" />
        </mxCell>
        <mxCell id="p7ySesvMW-Rr2XsrZ5MS-13" value="Начало" style="strokeWidth=1;html=1;shape=mxgraph.flowchart.terminator;whiteSpace=wrap;" vertex="1" parent="1">
          <mxGeometry x="720" y="40" width="80" height="40" as="geometry" />
        </mxCell>
        <mxCell id="p7ySesvMW-Rr2XsrZ5MS-24" style="edgeStyle=orthogonalEdgeStyle;rounded=0;orthogonalLoop=1;jettySize=auto;html=1;entryX=0.5;entryY=0;entryDx=0;entryDy=0;" edge="1" parent="1" source="p7ySesvMW-Rr2XsrZ5MS-21" target="p7ySesvMW-Rr2XsrZ5MS-23">
          <mxGeometry relative="1" as="geometry">
            <Array as="points">
              <mxPoint x="880" y="150" />
            </Array>
          </mxGeometry>
        </mxCell>
        <mxCell id="p7ySesvMW-Rr2XsrZ5MS-25" value="Нет" style="edgeLabel;html=1;align=center;verticalAlign=middle;resizable=0;points=[];" vertex="1" connectable="0" parent="p7ySesvMW-Rr2XsrZ5MS-24">
          <mxGeometry x="-0.7637" relative="1" as="geometry">
            <mxPoint x="-5" y="-9" as="offset" />
          </mxGeometry>
        </mxCell>
        <mxCell id="p7ySesvMW-Rr2XsrZ5MS-21" value="Есть хотя бы&lt;div&gt;один пациент&lt;/div&gt;" style="rhombus;whiteSpace=wrap;html=1;" vertex="1" parent="1">
          <mxGeometry x="700" y="100" width="120" height="100" as="geometry" />
        </mxCell>
        <mxCell id="p7ySesvMW-Rr2XsrZ5MS-49" style="edgeStyle=orthogonalEdgeStyle;rounded=0;orthogonalLoop=1;jettySize=auto;html=1;" edge="1" parent="1" source="p7ySesvMW-Rr2XsrZ5MS-23">
          <mxGeometry relative="1" as="geometry">
            <mxPoint x="760" y="800" as="targetPoint" />
            <Array as="points">
              <mxPoint x="880" y="720" />
              <mxPoint x="760" y="720" />
            </Array>
          </mxGeometry>
        </mxCell>
        <mxCell id="p7ySesvMW-Rr2XsrZ5MS-23" value="Добавить запись об отсутствии пациентов в отчет" style="shape=process;whiteSpace=wrap;html=1;backgroundOutline=1;" vertex="1" parent="1">
          <mxGeometry x="820" y="200" width="120" height="60" as="geometry" />
        </mxCell>
        <mxCell id="p7ySesvMW-Rr2XsrZ5MS-27" value="Запись в списке пациентов" style="strokeWidth=1;html=1;shape=mxgraph.flowchart.loop_limit;whiteSpace=wrap;" vertex="1" parent="1">
          <mxGeometry x="600" y="200" width="100" height="60" as="geometry" />
        </mxCell>
        <mxCell id="p7ySesvMW-Rr2XsrZ5MS-28" style="edgeStyle=orthogonalEdgeStyle;rounded=0;orthogonalLoop=1;jettySize=auto;html=1;entryX=0.5;entryY=0;entryDx=0;entryDy=0;entryPerimeter=0;" edge="1" parent="1" source="p7ySesvMW-Rr2XsrZ5MS-21" target="p7ySesvMW-Rr2XsrZ5MS-27">
          <mxGeometry relative="1" as="geometry">
            <Array as="points">
              <mxPoint x="650" y="150" />
            </Array>
          </mxGeometry>
        </mxCell>
        <mxCell id="p7ySesvMW-Rr2XsrZ5MS-40" value="Да" style="edgeLabel;html=1;align=center;verticalAlign=middle;resizable=0;points=[];" vertex="1" connectable="0" parent="p7ySesvMW-Rr2XsrZ5MS-28">
          <mxGeometry x="-0.5399" y="-1" relative="1" as="geometry">
            <mxPoint x="13" y="-9" as="offset" />
          </mxGeometry>
        </mxCell>
        <mxCell id="p7ySesvMW-Rr2XsrZ5MS-34" style="edgeStyle=orthogonalEdgeStyle;rounded=0;orthogonalLoop=1;jettySize=auto;html=1;entryX=0.5;entryY=0;entryDx=0;entryDy=0;" edge="1" parent="1" source="p7ySesvMW-Rr2XsrZ5MS-30" target="p7ySesvMW-Rr2XsrZ5MS-33">
          <mxGeometry relative="1" as="geometry" />
        </mxCell>
        <mxCell id="p7ySesvMW-Rr2XsrZ5MS-30" value="Запись в списке приемов" style="strokeWidth=1;html=1;shape=mxgraph.flowchart.loop_limit;whiteSpace=wrap;" vertex="1" parent="1">
          <mxGeometry x="600" y="280" width="100" height="60" as="geometry" />
        </mxCell>
        <mxCell id="p7ySesvMW-Rr2XsrZ5MS-31" style="edgeStyle=orthogonalEdgeStyle;rounded=0;orthogonalLoop=1;jettySize=auto;html=1;entryX=0.5;entryY=0;entryDx=0;entryDy=0;entryPerimeter=0;" edge="1" parent="1" source="p7ySesvMW-Rr2XsrZ5MS-27" target="p7ySesvMW-Rr2XsrZ5MS-30">
          <mxGeometry relative="1" as="geometry" />
        </mxCell>
        <mxCell id="p7ySesvMW-Rr2XsrZ5MS-36" style="edgeStyle=orthogonalEdgeStyle;rounded=0;orthogonalLoop=1;jettySize=auto;html=1;entryX=0.5;entryY=0;entryDx=0;entryDy=0;" edge="1" parent="1" source="p7ySesvMW-Rr2XsrZ5MS-33" target="p7ySesvMW-Rr2XsrZ5MS-35">
          <mxGeometry relative="1" as="geometry">
            <Array as="points">
              <mxPoint x="560" y="400" />
            </Array>
          </mxGeometry>
        </mxCell>
        <mxCell id="p7ySesvMW-Rr2XsrZ5MS-39" value="Да" style="edgeLabel;html=1;align=center;verticalAlign=middle;resizable=0;points=[];" vertex="1" connectable="0" parent="p7ySesvMW-Rr2XsrZ5MS-36">
          <mxGeometry x="-0.3042" y="-1" relative="1" as="geometry">
            <mxPoint x="17" y="-10" as="offset" />
          </mxGeometry>
        </mxCell>
        <mxCell id="p7ySesvMW-Rr2XsrZ5MS-33" value="Прием связан&lt;div&gt;с пациентом&lt;/div&gt;" style="rhombus;whiteSpace=wrap;html=1;" vertex="1" parent="1">
          <mxGeometry x="592.5" y="360" width="115" height="80" as="geometry" />
        </mxCell>
        <mxCell id="p7ySesvMW-Rr2XsrZ5MS-43" style="edgeStyle=orthogonalEdgeStyle;rounded=0;orthogonalLoop=1;jettySize=auto;html=1;" edge="1" parent="1" source="p7ySesvMW-Rr2XsrZ5MS-35">
          <mxGeometry relative="1" as="geometry">
            <mxPoint x="650" y="520" as="targetPoint" />
            <Array as="points">
              <mxPoint x="560" y="520" />
            </Array>
          </mxGeometry>
        </mxCell>
        <mxCell id="p7ySesvMW-Rr2XsrZ5MS-35" value="Увеличиваем счетчик посещений пациента" style="rounded=0;whiteSpace=wrap;html=1;" vertex="1" parent="1">
          <mxGeometry x="500" y="440" width="120" height="60" as="geometry" />
        </mxCell>
        <mxCell id="p7ySesvMW-Rr2XsrZ5MS-45" style="edgeStyle=orthogonalEdgeStyle;rounded=0;orthogonalLoop=1;jettySize=auto;html=1;entryX=0.5;entryY=0;entryDx=0;entryDy=0;" edge="1" parent="1" source="p7ySesvMW-Rr2XsrZ5MS-37" target="p7ySesvMW-Rr2XsrZ5MS-44">
          <mxGeometry relative="1" as="geometry" />
        </mxCell>
        <mxCell id="p7ySesvMW-Rr2XsrZ5MS-37" value="Список приемов" style="strokeWidth=1;html=1;shape=mxgraph.flowchart.loop_limit;whiteSpace=wrap;direction=west;" vertex="1" parent="1">
          <mxGeometry x="600" y="540" width="100" height="60" as="geometry" />
        </mxCell>
        <mxCell id="p7ySesvMW-Rr2XsrZ5MS-38" value="Список пациентов" style="strokeWidth=1;html=1;shape=mxgraph.flowchart.loop_limit;whiteSpace=wrap;direction=west;" vertex="1" parent="1">
          <mxGeometry x="600" y="700" width="100" height="60" as="geometry" />
        </mxCell>
        <mxCell id="p7ySesvMW-Rr2XsrZ5MS-41" style="edgeStyle=orthogonalEdgeStyle;rounded=0;orthogonalLoop=1;jettySize=auto;html=1;entryX=0.5;entryY=1;entryDx=0;entryDy=0;entryPerimeter=0;" edge="1" parent="1" source="p7ySesvMW-Rr2XsrZ5MS-33" target="p7ySesvMW-Rr2XsrZ5MS-37">
          <mxGeometry relative="1" as="geometry">
            <Array as="points">
              <mxPoint x="750" y="400" />
              <mxPoint x="750" y="500" />
              <mxPoint x="650" y="500" />
            </Array>
          </mxGeometry>
        </mxCell>
        <mxCell id="p7ySesvMW-Rr2XsrZ5MS-42" value="Нет" style="edgeLabel;html=1;align=center;verticalAlign=middle;resizable=0;points=[];" vertex="1" connectable="0" parent="p7ySesvMW-Rr2XsrZ5MS-41">
          <mxGeometry x="-0.8838" relative="1" as="geometry">
            <mxPoint x="-5" y="-12" as="offset" />
          </mxGeometry>
        </mxCell>
        <mxCell id="p7ySesvMW-Rr2XsrZ5MS-44" value="Добавить запись о пациенте в отчет" style="shape=process;whiteSpace=wrap;html=1;backgroundOutline=1;" vertex="1" parent="1">
          <mxGeometry x="590" y="620" width="120" height="60" as="geometry" />
        </mxCell>
        <mxCell id="p7ySesvMW-Rr2XsrZ5MS-46" style="edgeStyle=orthogonalEdgeStyle;rounded=0;orthogonalLoop=1;jettySize=auto;html=1;entryX=0.5;entryY=1;entryDx=0;entryDy=0;entryPerimeter=0;" edge="1" parent="1" source="p7ySesvMW-Rr2XsrZ5MS-44" target="p7ySesvMW-Rr2XsrZ5MS-38">
          <mxGeometry relative="1" as="geometry" />
        </mxCell>
        <mxCell id="p7ySesvMW-Rr2XsrZ5MS-47" value="Конец" style="strokeWidth=1;html=1;shape=mxgraph.flowchart.terminator;whiteSpace=wrap;" vertex="1" parent="1">
          <mxGeometry x="720" y="800" width="80" height="40" as="geometry" />
        </mxCell>
        <mxCell id="p7ySesvMW-Rr2XsrZ5MS-48" style="edgeStyle=orthogonalEdgeStyle;rounded=0;orthogonalLoop=1;jettySize=auto;html=1;" edge="1" parent="1" source="p7ySesvMW-Rr2XsrZ5MS-38">
          <mxGeometry relative="1" as="geometry">
            <mxPoint x="760" y="780" as="targetPoint" />
            <Array as="points">
              <mxPoint x="650" y="780" />
              <mxPoint x="760" y="780" />
            </Array>
          </mxGeometry>
        </mxCell>
        <mxCell id="p7ySesvMW-Rr2XsrZ5MS-50" value="Начало" style="strokeWidth=1;html=1;shape=mxgraph.flowchart.terminator;whiteSpace=wrap;" vertex="1" parent="1">
          <mxGeometry x="1280" y="40" width="80" height="40" as="geometry" />
        </mxCell>
        <mxCell id="p7ySesvMW-Rr2XsrZ5MS-54" style="edgeStyle=orthogonalEdgeStyle;rounded=0;orthogonalLoop=1;jettySize=auto;html=1;entryX=0.5;entryY=0;entryDx=0;entryDy=0;" edge="1" parent="1" source="p7ySesvMW-Rr2XsrZ5MS-51" target="p7ySesvMW-Rr2XsrZ5MS-53">
          <mxGeometry relative="1" as="geometry" />
        </mxCell>
        <mxCell id="p7ySesvMW-Rr2XsrZ5MS-51" value="Запись в списке пациентов" style="strokeWidth=1;html=1;shape=mxgraph.flowchart.loop_limit;whiteSpace=wrap;" vertex="1" parent="1">
          <mxGeometry x="1270" y="100" width="100" height="60" as="geometry" />
        </mxCell>
        <mxCell id="p7ySesvMW-Rr2XsrZ5MS-52" style="edgeStyle=orthogonalEdgeStyle;rounded=0;orthogonalLoop=1;jettySize=auto;html=1;entryX=0.5;entryY=0;entryDx=0;entryDy=0;entryPerimeter=0;" edge="1" parent="1" source="p7ySesvMW-Rr2XsrZ5MS-50" target="p7ySesvMW-Rr2XsrZ5MS-51">
          <mxGeometry relative="1" as="geometry" />
        </mxCell>
        <mxCell id="p7ySesvMW-Rr2XsrZ5MS-56" style="edgeStyle=orthogonalEdgeStyle;rounded=0;orthogonalLoop=1;jettySize=auto;html=1;entryX=0.5;entryY=0;entryDx=0;entryDy=0;" edge="1" parent="1" source="p7ySesvMW-Rr2XsrZ5MS-53" target="p7ySesvMW-Rr2XsrZ5MS-55">
          <mxGeometry relative="1" as="geometry">
            <Array as="points">
              <mxPoint x="1200" y="220" />
            </Array>
          </mxGeometry>
        </mxCell>
        <mxCell id="p7ySesvMW-Rr2XsrZ5MS-57" value="Да" style="edgeLabel;html=1;align=center;verticalAlign=middle;resizable=0;points=[];" vertex="1" connectable="0" parent="p7ySesvMW-Rr2XsrZ5MS-56">
          <mxGeometry x="-0.7926" y="1" relative="1" as="geometry">
            <mxPoint x="4" y="-11" as="offset" />
          </mxGeometry>
        </mxCell>
        <mxCell id="p7ySesvMW-Rr2XsrZ5MS-60" style="edgeStyle=orthogonalEdgeStyle;rounded=0;orthogonalLoop=1;jettySize=auto;html=1;" edge="1" parent="1" source="p7ySesvMW-Rr2XsrZ5MS-53">
          <mxGeometry relative="1" as="geometry">
            <mxPoint x="1320" y="380" as="targetPoint" />
            <Array as="points">
              <mxPoint x="1400" y="220" />
              <mxPoint x="1400" y="380" />
              <mxPoint x="1320" y="380" />
            </Array>
          </mxGeometry>
        </mxCell>
        <mxCell id="p7ySesvMW-Rr2XsrZ5MS-99" value="Нет" style="edgeLabel;html=1;align=center;verticalAlign=middle;resizable=0;points=[];" vertex="1" connectable="0" parent="p7ySesvMW-Rr2XsrZ5MS-60">
          <mxGeometry x="-0.959" y="2" relative="1" as="geometry">
            <mxPoint x="2" y="-8" as="offset" />
          </mxGeometry>
        </mxCell>
        <mxCell id="p7ySesvMW-Rr2XsrZ5MS-53" value="Указана дата рождения" style="rhombus;whiteSpace=wrap;html=1;" vertex="1" parent="1">
          <mxGeometry x="1260" y="180" width="120" height="80" as="geometry" />
        </mxCell>
        <mxCell id="p7ySesvMW-Rr2XsrZ5MS-55" value="Увеличиваем кол-во пациентов по году рождения" style="rounded=0;whiteSpace=wrap;html=1;" vertex="1" parent="1">
          <mxGeometry x="1140" y="280" width="120" height="60" as="geometry" />
        </mxCell>
        <mxCell id="p7ySesvMW-Rr2XsrZ5MS-58" value="Список пациентов" style="strokeWidth=1;html=1;shape=mxgraph.flowchart.loop_limit;whiteSpace=wrap;direction=west;" vertex="1" parent="1">
          <mxGeometry x="1270" y="400" width="100" height="60" as="geometry" />
        </mxCell>
        <mxCell id="p7ySesvMW-Rr2XsrZ5MS-59" style="edgeStyle=orthogonalEdgeStyle;rounded=0;orthogonalLoop=1;jettySize=auto;html=1;entryX=0.5;entryY=1;entryDx=0;entryDy=0;entryPerimeter=0;" edge="1" parent="1" source="p7ySesvMW-Rr2XsrZ5MS-55" target="p7ySesvMW-Rr2XsrZ5MS-58">
          <mxGeometry relative="1" as="geometry">
            <Array as="points">
              <mxPoint x="1200" y="360" />
              <mxPoint x="1320" y="360" />
            </Array>
          </mxGeometry>
        </mxCell>
        <mxCell id="p7ySesvMW-Rr2XsrZ5MS-61" value="Конец" style="strokeWidth=1;html=1;shape=mxgraph.flowchart.terminator;whiteSpace=wrap;" vertex="1" parent="1">
          <mxGeometry x="1280" y="480" width="80" height="40" as="geometry" />
        </mxCell>
        <mxCell id="p7ySesvMW-Rr2XsrZ5MS-62" style="edgeStyle=orthogonalEdgeStyle;rounded=0;orthogonalLoop=1;jettySize=auto;html=1;entryX=0.5;entryY=0;entryDx=0;entryDy=0;entryPerimeter=0;" edge="1" parent="1" source="p7ySesvMW-Rr2XsrZ5MS-58" target="p7ySesvMW-Rr2XsrZ5MS-61">
          <mxGeometry relative="1" as="geometry" />
        </mxCell>
        <mxCell id="p7ySesvMW-Rr2XsrZ5MS-64" value="Начало" style="strokeWidth=1;html=1;shape=mxgraph.flowchart.terminator;whiteSpace=wrap;" vertex="1" parent="1">
          <mxGeometry x="1650" y="40" width="80" height="40" as="geometry" />
        </mxCell>
        <mxCell id="p7ySesvMW-Rr2XsrZ5MS-65" style="edgeStyle=orthogonalEdgeStyle;rounded=0;orthogonalLoop=1;jettySize=auto;html=1;entryX=0.5;entryY=0;entryDx=0;entryDy=0;" edge="1" parent="1" source="p7ySesvMW-Rr2XsrZ5MS-66" target="p7ySesvMW-Rr2XsrZ5MS-71">
          <mxGeometry relative="1" as="geometry" />
        </mxCell>
        <mxCell id="p7ySesvMW-Rr2XsrZ5MS-66" value="Запись в списке приемов" style="strokeWidth=1;html=1;shape=mxgraph.flowchart.loop_limit;whiteSpace=wrap;" vertex="1" parent="1">
          <mxGeometry x="1640" y="100" width="100" height="60" as="geometry" />
        </mxCell>
        <mxCell id="p7ySesvMW-Rr2XsrZ5MS-67" style="edgeStyle=orthogonalEdgeStyle;rounded=0;orthogonalLoop=1;jettySize=auto;html=1;entryX=0.5;entryY=0;entryDx=0;entryDy=0;entryPerimeter=0;" edge="1" parent="1" source="p7ySesvMW-Rr2XsrZ5MS-64" target="p7ySesvMW-Rr2XsrZ5MS-66">
          <mxGeometry relative="1" as="geometry" />
        </mxCell>
        <mxCell id="p7ySesvMW-Rr2XsrZ5MS-68" style="edgeStyle=orthogonalEdgeStyle;rounded=0;orthogonalLoop=1;jettySize=auto;html=1;entryX=0.5;entryY=0;entryDx=0;entryDy=0;" edge="1" parent="1" source="p7ySesvMW-Rr2XsrZ5MS-71" target="p7ySesvMW-Rr2XsrZ5MS-72">
          <mxGeometry relative="1" as="geometry">
            <Array as="points">
              <mxPoint x="1570" y="220" />
            </Array>
          </mxGeometry>
        </mxCell>
        <mxCell id="p7ySesvMW-Rr2XsrZ5MS-69" value="Да" style="edgeLabel;html=1;align=center;verticalAlign=middle;resizable=0;points=[];" vertex="1" connectable="0" parent="p7ySesvMW-Rr2XsrZ5MS-68">
          <mxGeometry x="-0.7926" y="1" relative="1" as="geometry">
            <mxPoint x="4" y="-11" as="offset" />
          </mxGeometry>
        </mxCell>
        <mxCell id="p7ySesvMW-Rr2XsrZ5MS-70" style="edgeStyle=orthogonalEdgeStyle;rounded=0;orthogonalLoop=1;jettySize=auto;html=1;" edge="1" parent="1" source="p7ySesvMW-Rr2XsrZ5MS-71">
          <mxGeometry relative="1" as="geometry">
            <mxPoint x="1690" y="380" as="targetPoint" />
            <Array as="points">
              <mxPoint x="1770" y="220" />
              <mxPoint x="1770" y="380" />
              <mxPoint x="1690" y="380" />
            </Array>
          </mxGeometry>
        </mxCell>
        <mxCell id="p7ySesvMW-Rr2XsrZ5MS-98" value="Нет" style="edgeLabel;html=1;align=center;verticalAlign=middle;resizable=0;points=[];" vertex="1" connectable="0" parent="p7ySesvMW-Rr2XsrZ5MS-70">
          <mxGeometry x="-0.9231" relative="1" as="geometry">
            <mxPoint x="-1" y="-10" as="offset" />
          </mxGeometry>
        </mxCell>
        <mxCell id="p7ySesvMW-Rr2XsrZ5MS-71" value="Указана дата приема" style="rhombus;whiteSpace=wrap;html=1;" vertex="1" parent="1">
          <mxGeometry x="1630" y="180" width="120" height="80" as="geometry" />
        </mxCell>
        <mxCell id="p7ySesvMW-Rr2XsrZ5MS-72" value="Увеличиваем кол-во приемов по дате" style="rounded=0;whiteSpace=wrap;html=1;" vertex="1" parent="1">
          <mxGeometry x="1510" y="280" width="120" height="60" as="geometry" />
        </mxCell>
        <mxCell id="p7ySesvMW-Rr2XsrZ5MS-73" value="Список приемов" style="strokeWidth=1;html=1;shape=mxgraph.flowchart.loop_limit;whiteSpace=wrap;direction=west;" vertex="1" parent="1">
          <mxGeometry x="1640" y="400" width="100" height="60" as="geometry" />
        </mxCell>
        <mxCell id="p7ySesvMW-Rr2XsrZ5MS-74" style="edgeStyle=orthogonalEdgeStyle;rounded=0;orthogonalLoop=1;jettySize=auto;html=1;entryX=0.5;entryY=1;entryDx=0;entryDy=0;entryPerimeter=0;" edge="1" parent="1" source="p7ySesvMW-Rr2XsrZ5MS-72" target="p7ySesvMW-Rr2XsrZ5MS-73">
          <mxGeometry relative="1" as="geometry">
            <Array as="points">
              <mxPoint x="1570" y="360" />
              <mxPoint x="1690" y="360" />
            </Array>
          </mxGeometry>
        </mxCell>
        <mxCell id="p7ySesvMW-Rr2XsrZ5MS-75" value="Конец" style="strokeWidth=1;html=1;shape=mxgraph.flowchart.terminator;whiteSpace=wrap;" vertex="1" parent="1">
          <mxGeometry x="1650" y="480" width="80" height="40" as="geometry" />
        </mxCell>
        <mxCell id="p7ySesvMW-Rr2XsrZ5MS-76" style="edgeStyle=orthogonalEdgeStyle;rounded=0;orthogonalLoop=1;jettySize=auto;html=1;entryX=0.5;entryY=0;entryDx=0;entryDy=0;entryPerimeter=0;" edge="1" parent="1" source="p7ySesvMW-Rr2XsrZ5MS-73" target="p7ySesvMW-Rr2XsrZ5MS-75">
          <mxGeometry relative="1" as="geometry" />
        </mxCell>
        <mxCell id="p7ySesvMW-Rr2XsrZ5MS-77" value="Начало" style="strokeWidth=1;html=1;shape=mxgraph.flowchart.terminator;whiteSpace=wrap;" vertex="1" parent="1">
          <mxGeometry x="2000" y="40" width="80" height="40" as="geometry" />
        </mxCell>
        <mxCell id="p7ySesvMW-Rr2XsrZ5MS-78" style="edgeStyle=orthogonalEdgeStyle;rounded=0;orthogonalLoop=1;jettySize=auto;html=1;entryX=0.5;entryY=0;entryDx=0;entryDy=0;" edge="1" parent="1" source="p7ySesvMW-Rr2XsrZ5MS-79" target="p7ySesvMW-Rr2XsrZ5MS-84">
          <mxGeometry relative="1" as="geometry" />
        </mxCell>
        <mxCell id="p7ySesvMW-Rr2XsrZ5MS-79" value="Запись в списке пациентов" style="strokeWidth=1;html=1;shape=mxgraph.flowchart.loop_limit;whiteSpace=wrap;" vertex="1" parent="1">
          <mxGeometry x="1990" y="100" width="100" height="60" as="geometry" />
        </mxCell>
        <mxCell id="p7ySesvMW-Rr2XsrZ5MS-80" style="edgeStyle=orthogonalEdgeStyle;rounded=0;orthogonalLoop=1;jettySize=auto;html=1;entryX=0.5;entryY=0;entryDx=0;entryDy=0;entryPerimeter=0;" edge="1" parent="1" source="p7ySesvMW-Rr2XsrZ5MS-77" target="p7ySesvMW-Rr2XsrZ5MS-79">
          <mxGeometry relative="1" as="geometry" />
        </mxCell>
        <mxCell id="p7ySesvMW-Rr2XsrZ5MS-81" style="edgeStyle=orthogonalEdgeStyle;rounded=0;orthogonalLoop=1;jettySize=auto;html=1;entryX=0.5;entryY=0;entryDx=0;entryDy=0;" edge="1" parent="1" source="p7ySesvMW-Rr2XsrZ5MS-84" target="p7ySesvMW-Rr2XsrZ5MS-85">
          <mxGeometry relative="1" as="geometry">
            <Array as="points">
              <mxPoint x="1920" y="220" />
            </Array>
          </mxGeometry>
        </mxCell>
        <mxCell id="p7ySesvMW-Rr2XsrZ5MS-82" value="Да" style="edgeLabel;html=1;align=center;verticalAlign=middle;resizable=0;points=[];" vertex="1" connectable="0" parent="p7ySesvMW-Rr2XsrZ5MS-81">
          <mxGeometry x="-0.7926" y="1" relative="1" as="geometry">
            <mxPoint x="4" y="-11" as="offset" />
          </mxGeometry>
        </mxCell>
        <mxCell id="p7ySesvMW-Rr2XsrZ5MS-83" style="edgeStyle=orthogonalEdgeStyle;rounded=0;orthogonalLoop=1;jettySize=auto;html=1;entryX=0.5;entryY=0;entryDx=0;entryDy=0;" edge="1" parent="1" source="p7ySesvMW-Rr2XsrZ5MS-84" target="p7ySesvMW-Rr2XsrZ5MS-90">
          <mxGeometry relative="1" as="geometry">
            <mxPoint x="2040" y="380" as="targetPoint" />
            <Array as="points">
              <mxPoint x="2180" y="220" />
            </Array>
          </mxGeometry>
        </mxCell>
        <mxCell id="p7ySesvMW-Rr2XsrZ5MS-94" value="Нет" style="edgeLabel;html=1;align=center;verticalAlign=middle;resizable=0;points=[];" vertex="1" connectable="0" parent="p7ySesvMW-Rr2XsrZ5MS-83">
          <mxGeometry x="-0.7212" y="1" relative="1" as="geometry">
            <mxPoint x="-9" y="-9" as="offset" />
          </mxGeometry>
        </mxCell>
        <mxCell id="p7ySesvMW-Rr2XsrZ5MS-84" value="Указан&lt;div&gt;мужской&lt;div&gt;пол&lt;/div&gt;&lt;/div&gt;" style="rhombus;whiteSpace=wrap;html=1;" vertex="1" parent="1">
          <mxGeometry x="1980" y="180" width="120" height="80" as="geometry" />
        </mxCell>
        <mxCell id="p7ySesvMW-Rr2XsrZ5MS-85" value="Увеличиваем счетчик мужчин" style="rounded=0;whiteSpace=wrap;html=1;" vertex="1" parent="1">
          <mxGeometry x="1860" y="280" width="120" height="60" as="geometry" />
        </mxCell>
        <mxCell id="p7ySesvMW-Rr2XsrZ5MS-86" value="Список приемов" style="strokeWidth=1;html=1;shape=mxgraph.flowchart.loop_limit;whiteSpace=wrap;direction=west;" vertex="1" parent="1">
          <mxGeometry x="1990" y="480" width="100" height="60" as="geometry" />
        </mxCell>
        <mxCell id="p7ySesvMW-Rr2XsrZ5MS-87" style="edgeStyle=orthogonalEdgeStyle;rounded=0;orthogonalLoop=1;jettySize=auto;html=1;entryX=0.5;entryY=1;entryDx=0;entryDy=0;entryPerimeter=0;" edge="1" parent="1" source="p7ySesvMW-Rr2XsrZ5MS-85" target="p7ySesvMW-Rr2XsrZ5MS-86">
          <mxGeometry relative="1" as="geometry">
            <Array as="points">
              <mxPoint x="1920" y="440" />
              <mxPoint x="2040" y="440" />
            </Array>
          </mxGeometry>
        </mxCell>
        <mxCell id="p7ySesvMW-Rr2XsrZ5MS-88" value="Конец" style="strokeWidth=1;html=1;shape=mxgraph.flowchart.terminator;whiteSpace=wrap;" vertex="1" parent="1">
          <mxGeometry x="2000" y="560" width="80" height="40" as="geometry" />
        </mxCell>
        <mxCell id="p7ySesvMW-Rr2XsrZ5MS-89" style="edgeStyle=orthogonalEdgeStyle;rounded=0;orthogonalLoop=1;jettySize=auto;html=1;entryX=0.5;entryY=0;entryDx=0;entryDy=0;entryPerimeter=0;" edge="1" parent="1" source="p7ySesvMW-Rr2XsrZ5MS-86" target="p7ySesvMW-Rr2XsrZ5MS-88">
          <mxGeometry relative="1" as="geometry" />
        </mxCell>
        <mxCell id="p7ySesvMW-Rr2XsrZ5MS-92" style="edgeStyle=orthogonalEdgeStyle;rounded=0;orthogonalLoop=1;jettySize=auto;html=1;entryX=0.5;entryY=0;entryDx=0;entryDy=0;" edge="1" parent="1" source="p7ySesvMW-Rr2XsrZ5MS-90" target="p7ySesvMW-Rr2XsrZ5MS-91">
          <mxGeometry relative="1" as="geometry">
            <Array as="points">
              <mxPoint x="2040" y="290" />
            </Array>
          </mxGeometry>
        </mxCell>
        <mxCell id="p7ySesvMW-Rr2XsrZ5MS-96" value="Да" style="edgeLabel;html=1;align=center;verticalAlign=middle;resizable=0;points=[];" vertex="1" connectable="0" parent="p7ySesvMW-Rr2XsrZ5MS-92">
          <mxGeometry x="-0.4" relative="1" as="geometry">
            <mxPoint x="29" y="-10" as="offset" />
          </mxGeometry>
        </mxCell>
        <mxCell id="p7ySesvMW-Rr2XsrZ5MS-95" style="edgeStyle=orthogonalEdgeStyle;rounded=0;orthogonalLoop=1;jettySize=auto;html=1;" edge="1" parent="1" source="p7ySesvMW-Rr2XsrZ5MS-90">
          <mxGeometry relative="1" as="geometry">
            <mxPoint x="2040" y="460" as="targetPoint" />
            <Array as="points">
              <mxPoint x="2260" y="290" />
              <mxPoint x="2260" y="460" />
            </Array>
          </mxGeometry>
        </mxCell>
        <mxCell id="p7ySesvMW-Rr2XsrZ5MS-97" value="Нет" style="edgeLabel;html=1;align=center;verticalAlign=middle;resizable=0;points=[];" vertex="1" connectable="0" parent="p7ySesvMW-Rr2XsrZ5MS-95">
          <mxGeometry x="-0.9545" relative="1" as="geometry">
            <mxPoint y="-10" as="offset" />
          </mxGeometry>
        </mxCell>
        <mxCell id="p7ySesvMW-Rr2XsrZ5MS-90" value="Указан&lt;div&gt;женский&lt;/div&gt;&lt;div&gt;пол&lt;/div&gt;" style="rhombus;whiteSpace=wrap;html=1;" vertex="1" parent="1">
          <mxGeometry x="2120" y="250" width="120" height="80" as="geometry" />
        </mxCell>
        <mxCell id="p7ySesvMW-Rr2XsrZ5MS-93" style="edgeStyle=orthogonalEdgeStyle;rounded=0;orthogonalLoop=1;jettySize=auto;html=1;" edge="1" parent="1" source="p7ySesvMW-Rr2XsrZ5MS-91">
          <mxGeometry relative="1" as="geometry">
            <mxPoint x="2040" y="440" as="targetPoint" />
          </mxGeometry>
        </mxCell>
        <mxCell id="p7ySesvMW-Rr2XsrZ5MS-91" value="Увеличиваем счетчик женщин" style="rounded=0;whiteSpace=wrap;html=1;" vertex="1" parent="1">
          <mxGeometry x="2000" y="330" width="80" height="60" as="geometry" />
        </mxCell>
      </root>
    </mxGraphModel>
  </diagram>
</mxfile>
